# xmcd
#
# Track frame offsets: 
#        150
#        15000
#        27935
#        38572
#        56867
#        68167
#        83182
#        93825
#        108204
#        123212
#        140250
#        154942
#
# Disc length: 2265 seconds
#
# Revision: 2
# Processed by: cddbd v1.5PL3 Copyright (c) Steve Scherf et al.
# Submitted via: ExactAudioCopy v0.90b4
#
DISCID=8808d70c
DTITLE=Various Artist - The Beach Boys - Stars and Stripes Vol. 1
DYEAR=1900
DGENRE=Rock
TTITLE0=Lorrie Morgan/Don't Worry Baby
TTITLE1=James House/Little Deuce Coupe
TTITLE2=Junior Brown/409
TTITLE3=Doug Supernaw/Long Tall Texan
TTITLE4=Sawyer Brown/I Get Around
TTITLE5=Toby Keith/Be True To Your School
TTITLE6=Ricky Van Shelton/Fun, Fun, Fun
TTITLE7=T. Graham Brown/Help Me Rhonda
TTITLE8=Willie Nelson/The Warmth of the Sun
TTITLE9=Collin Raye/Sloop John B.
TTITLE10=Kathy Troccoli/I Can Hear Music
TTITLE11=Timothy B. Schmitt/Caroline, No
EXTD=
EXTT0=
EXTT1=
EXTT2=
EXTT3=
EXTT4=
EXTT5=
EXTT6=
EXTT7=
EXTT8=
EXTT9=
EXTT10=
EXTT11=
PLAYORDER=
